Coordinates
version=1
nRows=19
nColumns=24
inDegrees=yes

Units are S.I. units (second, meters, Newtons, ...)
Angles are in degrees.

endheader
time	torso_tilt	torso_list	torso_rotation	torso_tx	torso_ty	torso_tz	lumbar_extension	lumbar_bending	lumbar_rotation	hip_flexion_r	hip_adduction_r	hip_rotation_r	knee_angle_r	ankle_angle_r	subtalar_angle_r	mtp_angle_r	hip_flexion_l	hip_adduction_l	hip_rotation_l	knee_angle_l	ankle_angle_l	subtalar_angle_l	mtp_angle_l
      0.00000000	    -15.81353392	      2.54402968	     -0.75717079	      0.07971439	      1.00981057	      0.02119342	     10.97591197	     -2.27573831	      3.68228249	      4.90103793	     -0.69123400	     -7.08914342	     -1.92591418	      3.65834336	     -6.19574751	      0.00000000	      9.25635181	     -4.02460611	     -3.75002565	     -8.67107121	      5.72334332	      1.79683802	      0.00000000
      0.01000000	    -15.77298157	      2.53023480	     -0.66808576	      0.08005162	      1.00982768	      0.02155618	     10.92512486	     -2.27662577	      3.65264558	      4.88568951	     -0.67249545	     -7.08736496	     -1.93840238	      3.63102506	     -6.34995410	      0.00000000	      9.11697652	     -4.02506220	     -3.64417977	     -8.41148701	      5.61116706	      1.75667241	      0.00000000
      0.02000000	    -15.69976282	      2.51470356	     -0.58547663	      0.08054388	      1.00998451	      0.02197051	     10.79018512	     -2.27419654	      3.60905074	      4.93017236	     -0.65973851	     -7.09128279	     -1.96520385	      3.63691183	     -6.37507255	      0.00000000	      9.00700077	     -4.03511899	     -3.67857809	     -8.10507153	      5.47165812	      1.82388221	      0.00000000
      0.03000000	    -15.62518207	      2.49535724	     -0.49690876	      0.08099869	      1.01001737	      0.02242499	     10.66883598	     -2.26856030	      3.56970519	      4.95092659	     -0.64013922	     -7.11177393	     -1.98050187	      3.67928993	     -6.41652742	      0.00000000	      8.87591817	     -4.04533862	     -3.67169456	     -7.79326613	      5.36779774	      1.88025482	      0.00000000
      0.04000000	    -15.57077153	      2.47968838	     -0.42156575	      0.08128559	      1.00992582	      0.02289612	     10.59945316	     -2.28196133	      3.56764687	      4.95904105	     -0.59883920	     -7.16077293	     -2.02857007	      3.74514401	     -6.46727521	      0.00000000	      8.73131235	     -4.07477482	     -3.63586326	     -7.49711002	      5.28476467	      1.91846922	      0.00000000
      0.05000000	    -15.49799493	      2.46100805	     -0.34821150	      0.08165885	      1.00997374	      0.02340687	     10.50176407	     -2.28404211	      3.56886453	      4.96740081	     -0.56687235	     -7.24503537	     -2.05977139	      3.77475969	     -6.48476388	      0.00000000	      8.57959691	     -4.09916840	     -3.61752108	     -7.17011720	      5.16253979	      1.97482026	      0.00000000
      0.06000000	    -15.43005535	      2.44401158	     -0.28839098	      0.08200368	      1.01000272	      0.02395712	     10.44079599	     -2.29301757	      3.58711270	      4.95181704	     -0.52323295	     -7.33351894	     -2.11564370	      3.81396646	     -6.47906941	      0.00000000	      8.38312092	     -4.13539907	     -3.62923483	     -6.81637781	      5.01676481	      2.01388037	      0.00000000
      0.07000000	    -15.34090635	      2.43254017	     -0.21895915	      0.08245425	      1.00998261	      0.02453061	     10.33549757	     -2.31086932	      3.59521151	      4.93613319	     -0.47533070	     -7.41147506	     -2.12900058	      3.87114566	     -6.48022714	      0.00000000	      8.20130403	     -4.17683993	     -3.59813063	     -6.46002245	      4.90326991	      2.09479184	      0.00000000
      0.08000000	    -15.25778645	      2.42167502	     -0.14574615	      0.08284984	      1.00993076	      0.02513093	     10.26210655	     -2.32211867	      3.59377207	      4.89803765	     -0.42782067	     -7.50671266	     -2.15328983	      3.94863908	     -6.47773710	      0.00000000	      7.98786473	     -4.21137179	     -3.61292249	     -6.09695223	      4.78108883	      2.16173568	      0.00000000
      0.09000000	    -15.16526948	      2.41752611	     -0.08768300	      0.08332447	      1.01002967	      0.02573803	     10.16049012	     -2.35066806	      3.60295853	      4.88767166	     -0.37128673	     -7.60550564	     -2.19169919	      3.96322252	     -6.46290716	      0.00000000	      7.80113254	     -4.26578946	     -3.62447652	     -5.74472936	      4.62558479	      2.23416497	      0.00000000
      0.10000000	    -15.07608179	      2.40763294	     -0.03342531	      0.08372529	      1.01000533	      0.02640364	     10.07643926	     -2.37353786	      3.62136195	      4.86388548	     -0.30700369	     -7.66760102	     -2.23333753	      4.04229186	     -6.47980375	      0.00000000	      7.60852526	     -4.32385456	     -3.60896061	     -5.40488235	      4.51400104	      2.30149376	      0.00000000
      0.11000000	    -15.00504834	      2.39360291	     -0.00376223	      0.08398909	      1.00986166	      0.02710616	     10.06257901	     -2.38475682	      3.64649968	      4.78894567	     -0.23621362	     -7.69849206	     -2.27345516	      4.12258723	     -6.50054480	      0.00000000	      7.36335743	     -4.38382269	     -3.60045981	     -5.06824479	      4.41179554	      2.31688752	      0.00000000
      0.12000000	    -14.90172290	      2.37900553	      0.03942999	      0.08440732	      1.00986466	      0.02783337	      9.95265563	     -2.41268756	      3.66413038	      4.78459542	     -0.15307884	     -7.73493905	     -2.31773082	      4.17040811	     -6.53303229	      0.00000000	      7.21080466	     -4.46128174	     -3.55521650	     -4.78541723	      4.32023844	      2.35881685	      0.00000000
      0.13000000	    -14.80773197	      2.36018246	      0.06512522	      0.08476336	      1.00984216	      0.02860741	      9.87896613	     -2.42536503	      3.69205936	      4.75078429	     -0.07349827	     -7.74034476	     -2.36005558	      4.22860146	     -6.58786077	      0.00000000	      7.04559468	     -4.53131332	     -3.50775615	     -4.52809315	      4.22863578	      2.35826819	      0.00000000
      0.14000000	    -14.72826493	      2.34918048	      0.08998315	      0.08502413	      1.00978418	      0.02936782	      9.82225167	     -2.45245249	      3.69525698	      4.79823142	      0.01049674	     -7.77359457	     -2.54647775	      4.32997150	     -6.61867425	      0.00000000	      6.89965004	     -4.61477438	     -3.45452157	     -4.30944920	      4.16232479	      2.33824199	      0.00000000
      0.15000000	    -14.64594047	      2.32707867	      0.12488003	      0.08527767	      1.00969949	      0.03020940	      9.75328620	     -2.45818205	      3.69821826	      4.80999864	      0.08769935	     -7.76385274	     -2.64743847	      4.41799983	     -6.67367476	      0.00000000	      6.79174189	     -4.69005469	     -3.35619472	     -4.14851676	      4.11266314	      2.29997018	      0.00000000
      0.16000000	    -14.55469694	      2.31276461	      0.14053224	      0.08558446	      1.00974397	      0.03106452	      9.67430025	     -2.46339691	      3.70954066	      4.80474806	      0.15782438	     -7.75428729	     -2.71532890	      4.44341708	     -6.69807528	      0.00000000	      6.71257857	     -4.76408850	     -3.28092382	     -4.04483967	      4.09259401	      2.28913700	      0.00000000
      0.17000000	    -14.48980309	      2.28825213	      0.15997402	      0.08573784	      1.00967293	      0.03202656	      9.64068260	     -2.45284981	      3.74962426	      4.78859415	      0.22560902	     -7.74284268	     -2.79201653	      4.54054584	     -6.77809141	      0.00000000	      6.67220385	     -4.83230106	     -3.13849463	     -4.02440852	      4.03272383	      2.19674918	      0.00000000
      0.18000000	    -14.43925673	      2.27509842	      0.17453145	      0.08579855	      1.00950039	      0.03292559	      9.63660574	     -2.44698436	      3.77511421	      4.75842343	      0.28590310	     -7.76535702	     -2.86074374	      4.61995473	     -6.80644399	      0.00000000	      6.65496439	     -4.89312620	     -2.96495778	     -4.09065631	      4.10638375	      2.07025322	      0.00000000
